<?xml version="1.0" standalone="no"?>
<!DOCTYPE svg PUBLIC "-//W3C//DTD SVG 20010904//EN"
 "http://www.w3.org/TR/2001/REC-SVG-20010904/DTD/svg10.dtd">
<svg version="1.0" xmlns="http://www.w3.org/2000/svg"
 width="600.000000pt" height="420.000000pt" viewBox="0 0 600.000000 420.000000"
 preserveAspectRatio="xMidYMid meet">
<metadata>
Created by potrace 1.15, written by Peter Selinger 2001-2017
</metadata>
<g transform="translate(0.000000,420.000000) scale(0.100000,-0.100000)"
fill="#000000" stroke="none">
<path d="M2854 3269 c-88 -111 -195 -247 -238 -303 -44 -55 -92 -115 -107
-133 l-27 -32 -82 64 c-46 36 -86 62 -90 60 -5 -3 -25 -36 -46 -73 -20 -37
-131 -236 -247 -442 -115 -206 -212 -379 -214 -385 -3 -5 142 137 323 318
l329 327 565 0 565 0 273 -272 c263 -263 272 -271 249 -218 -14 30 -77 170
-142 310 -64 140 -133 290 -152 333 -20 42 -39 77 -43 77 -5 0 -40 -36 -80
-80 -40 -44 -75 -80 -79 -80 -4 0 -139 164 -300 365 -161 201 -294 365 -296
365 -1 0 -74 -91 -161 -201z m116 -63 c-22 -58 -40 -108 -40 -110 0 -3 12 -6
27 -8 25 -3 29 -9 45 -73 17 -71 24 -185 11 -185 -4 0 -18 10 -31 23 -24 21
-24 20 5 -35 l31 -58 -113 0 c-90 0 -115 3 -125 16 -8 8 -22 20 -32 25 -18 10
-18 8 -8 -11 6 -12 10 -24 7 -26 -2 -3 -45 -3 -95 -2 l-91 3 81 100 c44 55 89
111 100 125 l20 25 34 -40 34 -40 0 73 0 73 86 120 c48 66 88 118 90 116 3 -2
-14 -52 -36 -111z m814 -433 c9 -26 16 -72 16 -102 0 -39 3 -51 10 -41 5 8 11
12 14 9 7 -7 96 -207 96 -216 0 -3 -33 25 -72 63 -72 68 -80 81 -92 156 -5 28
-15 42 -41 58 -19 12 -35 26 -35 31 0 11 70 89 80 89 5 0 15 -21 24 -47z"/>
<path d="M2170 2215 l-345 -345 60 0 60 0 292 292 292 292 287 -292 286 -292
549 0 c302 0 549 3 549 8 0 4 -152 159 -338 345 l-338 337 -252 0 -252 0 0
-177 0 -178 -95 95 -95 95 0 82 0 83 -158 0 -157 0 -345 -345z"/>
<path d="M2423 2198 l-33 -34 -2 -274 -3 -275 -22 -3 -23 -3 0 245 c0 135 -4
246 -8 246 -5 0 -20 -13 -35 -28 l-27 -28 -2 -274 c-3 -267 -4 -275 -23 -275
-19 0 -20 8 -23 249 l-2 250 -35 -34 -35 -34 0 -263 0 -263 130 0 c109 0 132
-3 137 -15 9 -25 -4 -30 -99 -35 l-91 -5 76 -43 76 -44 41 23 40 23 1 100 c1
56 2 108 3 116 1 12 18 16 79 18 l77 3 0 -118 0 -119 -90 -34 c-60 -22 -86
-36 -78 -42 25 -15 193 -68 283 -88 121 -27 348 -37 483 -20 57 7 100 16 95
20 -4 4 -39 16 -78 26 l-70 19 195 5 c212 6 196 2 355 82 90 45 207 121 278
181 l47 40 0 159 0 158 -175 0 -175 0 0 -25 0 -25 144 0 c115 0 146 -3 156
-15 10 -12 10 -18 0 -30 -10 -12 -41 -15 -156 -15 l-144 0 0 -30 0 -30 149 0
c128 0 150 -2 155 -16 17 -43 5 -44 -418 -42 l-401 3 0 25 0 25 118 3 117 3 0
29 0 29 -117 3 -118 3 0 25 0 25 118 3 117 3 0 24 0 25 -145 0 -145 0 0 -250
0 -250 -70 0 -70 0 0 253 0 254 -25 23 -25 23 0 -251 c0 -235 -1 -251 -18
-257 -22 -6 -208 -5 -234 2 -10 2 -18 13 -18 24 0 18 8 19 105 19 l105 0 0
263 0 262 -125 125 -125 124 -2 -189 -3 -190 -75 0 -75 0 -5 218 -5 218 -32
-33z m1570 -690 c2 -7 0 -21 -5 -30 -8 -17 -37 -18 -398 -18 -213 0 -395 3
-404 6 -16 6 -22 35 -9 47 3 4 187 7 409 7 313 0 403 -3 407 -12z"/>
<path d="M2792 918 c-11 -24 -30 -71 -43 -105 -13 -35 -27 -63 -31 -63 -5 0
-8 -4 -8 -10 0 -5 14 -10 31 -10 25 0 29 3 24 19 -11 37 4 51 56 51 51 0 76
-21 63 -54 -5 -12 1 -16 25 -16 29 0 43 14 22 22 -5 2 -27 48 -49 103 -46 116
-63 128 -90 63z"/>
<path d="M2960 950 c0 -5 5 -10 10 -10 6 0 10 -38 10 -95 0 -57 -4 -95 -10
-95 -5 0 -10 -4 -10 -10 0 -6 31 -10 73 -10 64 0 76 3 95 23 27 29 28 51 2 77
-19 19 -19 22 -5 36 22 22 19 60 -7 78 -25 18 -158 23 -158 6z"/>
<path d="M3270 950 c0 -5 5 -10 10 -10 6 0 10 -38 10 -95 0 -57 -4 -95 -10
-95 -5 0 -10 -4 -10 -10 0 -5 16 -10 35 -10 19 0 35 5 35 10 0 6 -4 10 -10 10
-6 0 -10 32 -10 76 l0 77 66 -87 c37 -47 73 -86 80 -86 11 0 14 23 14 105 0
63 4 105 10 105 6 0 10 5 10 10 0 6 -19 10 -42 10 -39 -1 -41 -2 -25 -14 15
-12 17 -26 15 -87 l-3 -72 -65 86 c-47 63 -71 86 -87 87 -13 0 -23 -4 -23 -10z"/>
</g>
</svg>
